HIERARCHY
ROOT Hip
{
	OFFSET 0.00 0.00 0.00
	CHANNELS 6 Xposition Yposition Zposition Xrotation Yrotation Zrotation
	JOINT Left_Thigh
	{
		OFFSET 3.93700 0.00000 0.00000
		CHANNELS 3 Xrotation Yrotation Zrotation
		JOINT Left_Shin
		{
			OFFSET 0.00000 -19.24635 0.00000
			CHANNELS 3 Xrotation Yrotation Zrotation
			JOINT Left_Foot
			{
				OFFSET 0.00000 -17.00218 -0.00000
				CHANNELS 3 Xrotation Yrotation Zrotation
				JOINT Left_Toe
				{
					OFFSET 0.00000 -1.78320 6.65499
					CHANNELS 3 Xrotation Yrotation Zrotation
					End Site
					{
						OFFSET 0.00000 0.00000 2.95275
					}
				}
			}
		}
	}
	JOINT Right_Thigh
	{
		OFFSET -3.93700 0.00000 0.00000
		CHANNELS 3 Xrotation Yrotation Zrotation
		JOINT Right_Shin
		{
			OFFSET 0.00000 -19.24635 0.00000
			CHANNELS 3 Xrotation Yrotation Zrotation
			JOINT Right_Foot
			{
				OFFSET 0.00000 -17.00218 0.00000
				CHANNELS 3 Xrotation Yrotation Zrotation
				JOINT Right_Toe
				{
					OFFSET 0.00000 -1.78320 6.65499
					CHANNELS 3 Xrotation Yrotation Zrotation
					End Site
					{
						OFFSET 0.00000 0.00000 2.95275
					}
				}
			}
		}
	}
	JOINT Abdomen
	{
		OFFSET 0.00000 0.03937 0.00000
		CHANNELS 3 Xrotation Yrotation Zrotation
		JOINT Chest
		{
			OFFSET 0.00000 8.42896 0.00000
			CHANNELS 3 Xrotation Yrotation Zrotation
			JOINT Neck
			{
				OFFSET 0.00000 7.29157 0.00000
				CHANNELS 3 Xrotation Yrotation Zrotation
				JOINT Head_comp
				{
					OFFSET 0.00000 4.22110 0.00000
					CHANNELS 3 Xrotation Yrotation Zrotation
					End Site
					{
						OFFSET 0.00000 4.22110 0.00000
					}
				}
			}
			JOINT Left_Collar
			{
				OFFSET 0.00000 7.29157 0.00000
				CHANNELS 3 Xrotation Yrotation Zrotation
				JOINT Left_Shoulder
				{
					OFFSET 5.90550 0.00000 0.00000
					CHANNELS 3 Xrotation Yrotation Zrotation
					JOINT Left_Forearm
					{
						OFFSET 11.59585 0.00000 0.00000
						CHANNELS 3 Xrotation Yrotation Zrotation
						JOINT Left_Hand
						{
							OFFSET 8.38509 0.00000 0.00000
							CHANNELS 3 Xrotation Yrotation Zrotation
							JOINT L1ProxPhalanx
							{
								OFFSET 1.09197 2.42158 -0.70498
								CHANNELS 3 Zrotation Xrotation Yrotation
								JOINT L1MidPhalanx
								{
									OFFSET 0.54914 1.69807 0.00037
									CHANNELS 3 Xrotation Yrotation Zrotation
									JOINT L1DistPhalanx
									{
										OFFSET 0.34223 0.98477 -0.13890
										CHANNELS 3 Xrotation Yrotation Zrotation
										End Site
										{
											OFFSET 0.30414 0.90123 -0.07454
										}
									}
								}
							}
							JOINT L2ProxPhalanx
							{
								OFFSET 0.20570 2.50174 -0.52444
								CHANNELS 3 Zrotation Xrotation Yrotation
								JOINT L2MidPhalanx
								{
									OFFSET -0.25811 1.79891 -0.09553
									CHANNELS 3 Xrotation Yrotation Zrotation
									JOINT L2DistPhalanx
									{
										OFFSET -0.15680 1.09225 -0.05298
										CHANNELS 3 Xrotation Yrotation Zrotation
										End Site
										{
											OFFSET -0.15297 1.06215 -0.02141
										}
									}
								}
							}
							JOINT L3ProxPhalanx
							{
								OFFSET -0.68298 2.32110 -0.37433
								CHANNELS 3 Zrotation Xrotation Yrotation
								JOINT L3MidPhalanx
								{
									OFFSET -0.56320 1.55045 -0.08792
									CHANNELS 3 Xrotation Yrotation Zrotation
									JOINT L3DistPhalanx
									{
										OFFSET -0.34522 0.95085 -0.05080
										CHANNELS 3 Xrotation Yrotation Zrotation
										End Site
										{
											OFFSET -0.35953 0.99671 -0.01102
										}
									}
								}
							}
							JOINT L4ProxPhalanx
							{
								OFFSET -1.60546 2.01050 -0.41468
								CHANNELS 3 Zrotation Xrotation Yrotation
								JOINT L4MidPhalanx
								{
									OFFSET -0.81697 0.78962 -0.37932
									CHANNELS 3 Xrotation Yrotation Zrotation
									JOINT L4DistPhalanx
									{
										OFFSET -0.51445 0.51600 -0.16745
										CHANNELS 3 Xrotation Yrotation Zrotation
										End Site
										{
											OFFSET -0.66687 0.68407 -0.15932
										}
									}
								}
							}
							JOINT L5ProxPhalanx
							{
								OFFSET 1.32642 0.01652 -0.91353
								CHANNELS 3 Xrotation Yrotation Zrotation
								JOINT L5MidPhalanx
								{
									OFFSET 0.56037 -0.04452 -1.10949
									CHANNELS 3 Xrotation Yrotation Zrotation
									JOINT L5DistPhalanx
									{
										OFFSET 0.56894 -0.31394 -0.93677
										CHANNELS 3 Xrotation Yrotation Zrotation
										End Site
										{
											OFFSET 0.15316 0.30870 -1.10710
										}
									}
								}
							}
						}
					}
				}
			}
			JOINT Right_Collar
			{
				OFFSET 0.00000 7.29157 0.00000
				CHANNELS 3 Xrotation Yrotation Zrotation
				JOINT Right_Shoulder
				{
					OFFSET -5.90550 0.00000 0.00000
					CHANNELS 3 Xrotation Yrotation Zrotation
					JOINT Right_Forearm
					{
						OFFSET -11.59585 -0.00000 0.00000
						CHANNELS 3 Xrotation Yrotation Zrotation
						JOINT Right_Hand
						{
							OFFSET -8.38509 -0.00000 0.00000
							CHANNELS 3 Xrotation Yrotation Zrotation
							JOINT R1ProxPhalanx
							{
								OFFSET -1.68547 2.46874 -0.24056
								CHANNELS 3 Zrotation Xrotation Yrotation
								JOINT R1MidPhalanx
								{
									OFFSET -0.10277 1.47086 -0.45732
									CHANNELS 3 Xrotation Yrotation Zrotation
									JOINT R1DistPhalanx
									{
										OFFSET -0.08662 0.93830 -0.07738
										CHANNELS 3 Xrotation Yrotation Zrotation
										End Site
										{
											OFFSET -0.07343 0.79543 -0.06560
										}
									}
								}
							}
							JOINT R2ProxPhalanx
							{
								OFFSET -0.85407 2.65552 -0.00744
								CHANNELS 3 Zrotation Xrotation Yrotation
								JOINT R2MidPhalanx
								{
									OFFSET -0.20884 1.70284 -0.28882
									CHANNELS 3 Xrotation Yrotation Zrotation
									JOINT R2DistPhalanx
									{
										OFFSET -0.13336 1.10092 -0.23410
										CHANNELS 3 Xrotation Yrotation Zrotation
										End Site
										{
											OFFSET -0.11503 0.94711 -0.19274
										}
									}
								}
							}
							JOINT R3ProxPhalanx
							{
								OFFSET 0.20418 2.54564 0.23484
								CHANNELS 3 Zrotation Xrotation Yrotation
								JOINT R3MidPhalanx
								{
									OFFSET -0.04892 1.76626 -0.37155
									CHANNELS 3 Xrotation Yrotation Zrotation
									JOINT R3DistPhalanx
									{
										OFFSET -0.02641 0.95308 -0.21249
										CHANNELS 3 Xrotation Yrotation Zrotation
										End Site
										{
											OFFSET -0.02537 0.91606 -0.19270
										}
									}
								}
							}
							JOINT R4ProxPhalanx
							{
								OFFSET 0.88895 2.32064 0.25776
								CHANNELS 3 Zrotation Xrotation Yrotation
								JOINT R4MidPhalanx
								{
									OFFSET 0.43367 1.29723 -0.28031
									CHANNELS 3 Xrotation Yrotation Zrotation
									JOINT R4DistPhalanx
									{
										OFFSET 0.24248 0.73091 -0.16650
										CHANNELS 3 Xrotation Yrotation Zrotation
										End Site
										{
											OFFSET 0.26427 0.78713 -0.16490
										}
									}
								}
							}
							JOINT R5ProxPhalanx
							{
								OFFSET -1.27353 -0.34685 -0.51300
								CHANNELS 3 Xrotation Yrotation Zrotation
								JOINT R5MidPhalanx
								{
									OFFSET -0.97380 1.27673 -0.24634
									CHANNELS 3 Xrotation Yrotation Zrotation
									JOINT R5DistPhalanx
									{
										OFFSET -0.70681 0.85176 -0.10722
										CHANNELS 3 Xrotation Yrotation Zrotation
										End Site
										{
											OFFSET -0.60213 0.74049 -0.11612
										}
									}
								}
							}
						}
					}
				}
			}
		}
	}
}
MOTION
Frames: 5
Frame Time: 0.008333
5.5477 38.0689 -10.4068 7.4917 7.3712 1.2609 -16.6427 2.9417 4.9644 31.4193 -0.0 -0.0 -20.621 12.8193 -9.6323 14.1478 -0.0 -0.0 -16.3189 -11.5952 -5.3267 31.391 0.0 -0.0 -26.524 -24.0276 4.5074 20.3662 0.0 -0.0 -14.995 0.4719 -1.418 9.921 1.1182 6.4854 27.9484 11.444 3.181 -23.8749 18.3276 -13.8449 -2.4527 -2.7546 6.6186 -9.7565 -25.5147 -73.8034 180.0 -59.679 180.0 -57.2573 -92.0197 -76.1342 26.2479 -1.4064 1.0739 5.6857 -1.7808 1.0661 -0.6682 0.2167 -0.1139 -3.0135 -1.53 -0.4644 -3.214 -0.4622 -0.066 0.6926 0.1 0.0108 -20.3493 -11.2002 -9.4606 13.479 4.7005 -1.303 -12.7448 -4.6302 0.1921 -47.8536 11.1808 -9.9081 -1.3965 -1.2901 0.3225 -0.0843 -0.0775 0.0203 66.2507 -28.4686 73.6061 19.7787 16.3885 4.3609 -47.4657 -22.7538 -25.5673 -14.2222 5.052 -8.6244 -34.7645 2.3064 82.0842 -180.0 79.8786 180.0 -67.7259 89.3608 85.4072 -36.2647 -48.102 -36.7368 -18.6395 -1.5412 -2.0973 -12.3233 -1.0971 -1.3324 -37.2217 -53.0346 -39.9954 -38.2148 -4.1145 -2.816 13.4078 1.7638 0.2658 -29.48 -77.9725 -31.5424 -17.2836 -0.4702 -0.0481 2.5437 0.0696 -0.005 83.5654 -76.1136 89.4786 -11.9912 4.2259 3.0414 -11.5321 4.078 2.9102 174.9285 -79.2388 177.0167 -3.7657 -3.3696 -3.7669 6.4069 6.8475 6.4092 
5.5398 38.0831 -10.4063 7.6709 7.3858 1.2375 -16.7735 3.1633 5.0337 31.2656 0.0 0.0 -20.513 12.584 -9.6997 14.134 -0.0 0.0 -16.4246 -11.5922 -5.3049 31.2561 0.0 -0.0 -26.4147 -24.0304 4.6071 20.2695 0.0 -0.0 -14.9174 0.5029 -1.3347 9.5343 1.0898 6.2851 27.9448 11.4889 3.213 -24.0009 18.2982 -13.6795 -2.122 -2.5931 6.4659 -9.0631 -25.2028 -73.2512 -180.0 -60.1207 180.0 -58.5624 -92.2137 -76.067 26.6717 -1.535 1.1913 4.6694 -1.4712 0.8631 -0.4825 0.1563 -0.0825 -2.5858 -1.9273 -0.5042 -4.6676 -0.6698 -0.1043 2.0086 0.2905 0.0281 -19.9651 -11.7565 -9.7929 13.4608 4.6945 -1.3005 -13.1337 -4.7713 0.1817 -47.3505 11.1061 -10.488 -1.6225 -1.5002 0.3718 -0.5526 -0.5088 0.1312 65.9886 -28.2825 72.8488 19.9483 16.5335 4.3737 -47.6187 -22.7831 -25.6667 -14.2504 4.7977 -8.6122 -35.8767 0.8934 81.7513 180.0 81.3588 180.0 -69.1151 89.5085 85.7161 -36.5541 -48.5436 -37.0998 -17.7218 -1.482 -1.9833 -13.0095 -1.1494 -1.4131 -37.0041 -53.2185 -39.8052 -38.4852 -4.1358 -2.8449 12.7081 1.6706 0.2622 -27.5792 -77.8226 -29.5908 -17.6691 -0.4804 -0.0508 2.5849 0.0708 -0.0051 83.7159 -76.0474 89.6331 -11.3136 4.0072 2.8482 -10.9763 3.8974 2.7529 172.9941 -78.9895 175.3455 -3.9217 -3.4995 -3.9228 6.784 7.2983 6.7865 
5.5329 38.0969 -10.407 7.818 7.4605 1.2277 -16.8603 3.2059 5.0394 31.0955 -0.0 0.0 -20.403 12.4834 -9.7508 14.1555 0.0 -0.0 -16.5377 -11.7885 -5.3447 31.1614 0.0 -0.0 -26.3125 -23.9404 4.7005 20.1761 0.0 -0.0 -14.791 0.4975 -1.2609 9.1602 1.028 6.0835 27.8331 11.4368 3.2795 -23.9777 18.3295 -13.5981 -1.8663 -2.4377 6.2692 -8.3347 -24.8846 -72.5976 -180.0 -60.5461 -180.0 -60.1567 -92.4676 -76.111 27.2705 -1.7725 1.4182 4.4045 -1.3899 0.8111 -0.7254 0.2353 -0.1236 -2.0288 -2.2544 -0.513 -5.0567 -0.7252 -0.1155 1.5624 0.2259 0.0227 -19.6448 -12.2505 -10.0848 13.3448 4.6557 -1.2847 -13.4741 -4.8946 0.1719 -46.8902 11.053 -11.2591 -1.5396 -1.423 0.3538 0.0785 0.0721 -0.019 65.9904 -28.2052 72.2111 20.4103 16.9287 4.4063 -47.3594 -22.7332 -25.4982 -14.5596 4.6192 -8.7333 -36.5241 -0.3021 81.4352 180.0 82.7028 -180.0 -69.5439 89.3845 86.2462 -35.4159 -48.2548 -35.8285 -20.0228 -1.627 -2.271 -12.5517 -1.1146 -1.3592 -36.5032 -53.5685 -39.3522 -38.9871 -4.1748 -2.8987 12.3957 1.629 0.2602 -27.0127 -77.7726 -29.0093 -17.2935 -0.4704 -0.0482 3.0058 0.0823 -0.0062 81.9826 -76.1045 87.9411 -11.301 4.0031 2.8446 -11.1315 3.948 2.7966 168.7847 -78.7255 171.0624 -3.5853 -3.2183 -3.5864 6.6038 7.0822 6.6062 
5.5237 38.1135 -10.4059 8.0066 7.4898 1.164 -16.9642 3.2574 5.1004 30.8892 0.0 0.0 -20.3114 12.4109 -9.8015 14.1895 -0.0 -0.0 -16.538 -11.7038 -5.2286 30.8325 -0.0 0.0 -26.232 -24.0673 4.6911 20.1974 -0.0 0.0 -14.7232 0.5128 -1.1517 8.8276 0.9957 5.9354 27.742 11.4844 3.2497 -24.1007 18.2404 -13.4942 -1.6435 -2.318 6.0677 -7.5908 -24.5618 -71.9635 180.0 -60.9151 180.0 -61.3158 -92.5343 -76.0174 27.3229 -1.809 1.4542 3.9234 -1.2414 0.7175 -0.9258 0.3006 -0.1572 -1.9755 -2.6097 -0.571 -5.2665 -0.7551 -0.1217 1.7109 0.2474 0.0245 -19.7503 -12.5258 -10.343 13.1432 4.5884 -1.2574 -13.7037 -4.9777 0.1648 -46.9623 11.1351 -11.8875 -1.928 -1.7847 0.4373 0.0205 0.0189 -0.005 66.1041 -28.2451 72.2227 20.4136 16.9315 4.4065 -47.0761 -22.6778 -25.3143 -14.799 4.3419 -8.8185 -37.219 -0.9577 81.0469 180.0 84.0705 -180.0 -70.7727 89.2493 86.8021 -36.2422 -49.1649 -36.8211 -18.4518 -1.5292 -2.0739 -13.6583 -1.198 -1.49 -37.38 -54.4023 -40.4386 -37.6697 -4.0714 -2.7581 11.5232 1.5128 0.2535 -27.796 -77.6527 -29.8152 -15.8719 -0.4325 -0.0389 1.8486 0.0506 -0.0033 80.0492 -76.3136 86.0325 -11.7012 4.1326 2.9584 -10.3893 3.7047 2.5884 172.5313 -80.4404 175.2313 -4.42 -3.9099 -4.4213 7.3864 8.0301 7.3891 
5.5107 38.1293 -10.4029 8.1708 7.5633 1.136 -17.0115 3.23 5.109 30.6257 0.0 0.0 -20.2044 12.3833 -9.8564 14.2229 -0.0 -0.0 -16.5884 -11.7704 -5.2019 30.6238 -0.0 0.0 -26.152 -24.0624 4.7228 20.2053 -0.0 0.0 -14.6447 0.5029 -1.0944 8.5264 0.9458 5.7916 27.6082 11.4672 3.2766 -24.1906 18.2424 -13.4459 -1.406 -2.1272 5.8281 -6.9201 -24.2756 -71.2435 180.0 -61.2694 180.0 -62.2547 -92.5298 -75.9821 27.3344 -1.6813 1.3256 3.1708 -1.0076 0.5736 -0.9876 0.3208 -0.1675 -2.1121 -2.8167 -0.622 -5.1739 -0.7419 -0.1189 1.278 0.1847 0.019 -19.8301 -12.7089 -10.5187 12.8861 4.5023 -1.223 -13.8165 -5.0185 0.1612 -46.8568 11.1636 -12.4802 -1.8944 -1.7534 0.4302 -0.1718 -0.158 0.0413 66.2644 -28.3796 72.2657 20.5673 17.0628 4.4166 -47.521 -22.7644 -25.6032 -14.961 4.1287 -8.8766 -37.7889 -1.2565 80.5631 180.0 85.0819 -180.0 -71.1864 89.1823 87.0213 -36.6297 -49.5225 -37.278 -18.1747 -1.5114 -2.0395 -13.3804 -1.1773 -1.457 -38.1005 -54.8578 -41.2851 -36.765 -3.9985 -2.6629 10.8646 1.4252 0.2473 -27.8959 -77.2455 -29.9208 -15.0114 -0.4095 -0.0337 1.6119 0.0442 -0.0028 78.1591 -76.3682 84.1833 -11.4527 4.0523 2.8876 -10.1923 3.6397 2.5336 173.9984 -80.7678 176.9755 -4.4726 -3.9528 -4.474 7.4585 8.1186 7.4613 
